# xmcd
# 
# Track frame offsets:
#     150
#     14511
#     27988
#     46111
#     60426
#     77064
#     92534
#     109594
#     124119
#     140470
#     155462
#     173345
#     194250
#     210629
#     225622
#     242432
# 
# Disc length: 3441
# 
# Revision: 1
# Processed by: cddbd v1.5.2PL0 Copyright (c) Steve Scherf et al.
# Submitted via: fre:ac v1.0.17
# 
DISCID=be0d6f10
DTITLE=Luke Bryan - Kill the Lights
DYEAR=2015
DGENRE=Country
TTITLE0=Kick The Dust Up
TTITLE1=Kill The Lights
TTITLE2=Strip It Down
TTITLE3=Home Alone Tonight
TTITLE4=Razor Blade
TTITLE5=Fast
TTITLE6=Move
TTITLE7=Just Over
TTITLE8=Love It Gone
TTITLE9=Way Way Back
TTITLE10=To the Moon and Back
TTITLE11=Huntin', Fishin' and Loving' Every Day
TTITLE12=Scarecrows
TTITLE13=Corner Booth
TTITLE14=Little Boys Grow Up and Dogs Get Old
TTITLE15=Buddies
EXTD=
EXTT0=
EXTT1=
EXTT2=
EXTT3=
EXTT4=
EXTT5=
EXTT6=
EXTT7=
EXTT8=
EXTT9=
EXTT10=
EXTT11=
EXTT12=
EXTT13=
EXTT14=
EXTT15=
PLAYORDER=
